<mxfile host="app.diagrams.net" modified="2024-02-08T11:41:33.094Z" agent="Mozilla/5.0 (Windows NT 10.0; Win64; x64) AppleWebKit/537.36 (KHTML, like Gecko) Chrome/121.0.0.0 Safari/537.36" etag="tiMBfA5dRe9Hu20dYrTs" version="23.1.0" type="device">
  <diagram name="Page-1" id="DeJB2czDSN_dIi8B3RCe">
    <mxGraphModel dx="1434" dy="1949" grid="1" gridSize="10" guides="1" tooltips="1" connect="1" arrows="1" fold="1" page="1" pageScale="1" pageWidth="827" pageHeight="1169" math="0" shadow="0">
      <root>
        <mxCell id="0" />
        <mxCell id="1" parent="0" />
        <mxCell id="GwU9TqXV4x6sd4GeaGwo-1" value="Start" style="ellipse;whiteSpace=wrap;html=1;fillColor=#d5e8d4;strokeColor=#82b366;" parent="1" vertex="1">
          <mxGeometry x="50" y="-250" width="120" height="80" as="geometry" />
        </mxCell>
        <mxCell id="GwU9TqXV4x6sd4GeaGwo-2" value="End" style="ellipse;whiteSpace=wrap;html=1;fillColor=#f8cecc;strokeColor=#b85450;" parent="1" vertex="1">
          <mxGeometry x="230" y="-250" width="120" height="80" as="geometry" />
        </mxCell>
        <mxCell id="GwU9TqXV4x6sd4GeaGwo-3" value="Input" style="shape=parallelogram;perimeter=parallelogramPerimeter;whiteSpace=wrap;html=1;fixedSize=1;fillColor=#fff2cc;strokeColor=#d6b656;" parent="1" vertex="1">
          <mxGeometry x="50" y="-130" width="120" height="61" as="geometry" />
        </mxCell>
        <mxCell id="GwU9TqXV4x6sd4GeaGwo-4" value="Output" style="shape=parallelogram;perimeter=parallelogramPerimeter;whiteSpace=wrap;html=1;fixedSize=1;fillColor=#dae8fc;strokeColor=#6c8ebf;" parent="1" vertex="1">
          <mxGeometry x="230" y="-130" width="120" height="60" as="geometry" />
        </mxCell>
        <mxCell id="GwU9TqXV4x6sd4GeaGwo-5" value="Proccesing" style="rounded=0;whiteSpace=wrap;html=1;fillColor=#b0e3e6;strokeColor=#0e8088;" parent="1" vertex="1">
          <mxGeometry x="50" y="-30" width="120" height="60" as="geometry" />
        </mxCell>
        <mxCell id="GwU9TqXV4x6sd4GeaGwo-6" value="Decision (Selection)" style="rhombus;whiteSpace=wrap;html=1;fillColor=#d0cee2;strokeColor=#56517e;" parent="1" vertex="1">
          <mxGeometry x="70" y="60" width="80" height="80" as="geometry" />
        </mxCell>
        <mxCell id="GwU9TqXV4x6sd4GeaGwo-7" value="Decision (Loop)" style="rhombus;whiteSpace=wrap;html=1;fillColor=#cdeb8b;strokeColor=#36393d;" parent="1" vertex="1">
          <mxGeometry x="250" y="60" width="80" height="80" as="geometry" />
        </mxCell>
        <mxCell id="GwU9TqXV4x6sd4GeaGwo-8" value="" style="endArrow=classic;html=1;rounded=0;" parent="1" edge="1">
          <mxGeometry width="50" height="50" relative="1" as="geometry">
            <mxPoint x="230" y="10" as="sourcePoint" />
            <mxPoint x="320" y="10" as="targetPoint" />
          </mxGeometry>
        </mxCell>
        <mxCell id="GwU9TqXV4x6sd4GeaGwo-9" value="Connector" style="edgeLabel;html=1;align=center;verticalAlign=middle;resizable=0;points=[];" parent="GwU9TqXV4x6sd4GeaGwo-8" connectable="0" vertex="1">
          <mxGeometry x="-0.6889" y="4" relative="1" as="geometry">
            <mxPoint x="26" y="-6" as="offset" />
          </mxGeometry>
        </mxCell>
        <mxCell id="GwU9TqXV4x6sd4GeaGwo-10" value="&lt;font style=&quot;font-size: 20px;&quot;&gt;&lt;u&gt;Flowchart Key:&lt;/u&gt;&lt;/font&gt;" style="text;html=1;align=center;verticalAlign=middle;resizable=0;points=[];autosize=1;strokeColor=none;fillColor=none;" parent="1" vertex="1">
          <mxGeometry x="120" y="-290" width="160" height="40" as="geometry" />
        </mxCell>
        <mxCell id="GwU9TqXV4x6sd4GeaGwo-11" value="Procedure / Function" style="shape=process;whiteSpace=wrap;html=1;backgroundOutline=1;fillColor=#bac8d3;strokeColor=#23445d;" parent="1" vertex="1">
          <mxGeometry x="50" y="170" width="120" height="60" as="geometry" />
        </mxCell>
      </root>
    </mxGraphModel>
  </diagram>
</mxfile>
